# xmcd
# 
# Track frame offsets:
#	183
#	12260
#	27343
#	38870
#	54898
#	69360
#	83378
#	96973
#	112373
#	124375
#	139325
#
# Disc length: 2043 seconds
#
# Revision: 1
# Processed by: cddbd v1.4PL0 Copyright (c) Steve Scherf et al.
# Submitted via: Audio-CD-Archiv 2.10.446
#
DISCID=9207f90b
DTITLE=Shakey Jake and The All Stars - Further On Up The Road
DYEAR=1900
DGENRE=blues
TTITLE0=Everything Gonna Be Alright
TTITLE1=Hold That Bus, Conductor
TTITLE2=Strollin' On The Strip
TTITLE3=Respect Me Baby
TTITLE4=I Will Always Love You
TTITLE5=Three Times Seven
TTITLE6=Further On Up The Road
TTITLE7=A Hard Road To Travel
TTITLE8=Save Your Money Baby
TTITLE9=Too Hot To Hold
TTITLE10=Long Distance Call
EXTD=
EXTT0=
EXTT1=
EXTT2=
EXTT3=
EXTT4=
EXTT5=
EXTT6=
EXTT7=
EXTT8=
EXTT9=
EXTT10=
PLAYORDER=
